<svg width="132" height="24" viewBox="0 0 132 24" fill="none" xmlns="http://www.w3.org/2000/svg">
<path fill-rule="evenodd" clip-rule="evenodd" d="M40.0799 2.76C40.0799 3.48 39.8399 4.08 39.2399 4.56C38.2799 5.52 36.4799 5.52 35.5199 4.56C33.7199 3 35.1599 0 37.3199 0C38.8799 0 40.0799 1.2 40.0799 2.76ZM39.5999 23.04H35.1599V7.8H39.5999V23.04ZM8.64754 23.5C10.9426 23.5 13.0082 22.6942 14.5 21.1978L11.6311 18.3201C10.9426 19.1259 9.90984 19.5863 8.76229 19.5863C6.46721 19.5863 4.63115 17.8597 4.63115 15.5576C4.63115 13.2554 6.46721 11.4137 8.76229 11.4137C9.90984 11.4137 10.9426 11.8741 11.5164 12.5647L14.3852 9.80216C12.8934 8.42086 10.8279 7.5 8.64754 7.5C4.17213 7.5 0.5 11.0683 0.5 15.5576C0.5 19.9317 4.05738 23.5 8.64754 23.5ZM23.8801 23.34C26.2801 23.34 28.3201 22.62 29.8801 21.18C31.4401 19.62 32.2801 17.7 32.2801 15.42C32.2801 13.02 31.4401 11.1 29.8801 9.66C28.3201 8.22 26.4001 7.5 23.8801 7.5C21.3601 7.5 19.3201 8.22 17.7601 9.66C16.2001 11.1 15.3601 13.02 15.3601 15.42C15.3601 17.82 16.2001 19.74 17.7601 21.18C19.4401 22.62 21.4801 23.34 23.8801 23.34ZM21.0001 12.3C21.8401 11.46 22.6801 11.1 23.8801 11.1C25.0801 11.1 25.9201 11.46 26.7601 12.3C27.4801 13.02 27.8401 14.1 27.8401 15.42C27.8401 16.74 27.4801 17.82 26.7601 18.54C25.9201 19.26 25.0801 19.62 23.8801 19.62C22.6801 19.62 21.7201 19.26 21.0001 18.54C20.2801 17.82 19.9201 16.74 19.9201 15.42C19.9201 14.1 20.2801 13.02 21.0001 12.3ZM57.9599 23.16V13.68C57.9599 9.84 55.4399 7.44 51.8399 7.44C49.9199 7.44 48.4799 8.04 47.6399 9.36V7.8H43.4399V23.16H47.8799V14.64C47.8799 12.72 49.0799 11.52 50.7599 11.52C52.4399 11.52 53.5199 12.6 53.5199 14.52V23.16H57.9599ZM66.0001 0V9.12C66.8401 8.04 68.1601 7.44 69.9601 7.44C73.6801 7.44 76.0801 9.84 76.0801 13.68V23.16H71.6401V14.52C71.6401 12.6 70.5601 11.52 68.8801 11.52C67.2001 11.52 66.0001 12.72 66.0001 14.64V23.16H61.5601V0H66.0001ZM91.3201 7.67998V9.35998C90.3601 8.03998 88.8001 7.43998 86.6401 7.55998C84.3601 7.55998 82.5601 8.27998 81.1201 9.71998C79.8001 11.16 79.0801 13.08 79.0801 15.48C79.0801 17.88 79.6801 19.8 81.1201 21.24C82.5601 22.68 84.3601 23.4 86.6401 23.4C88.6801 23.4 90.4801 22.56 91.3201 21.48V23.04H95.5201V7.67998H91.3201ZM87.3601 19.68C85.0801 19.68 83.5201 18.24 83.5201 15.48C83.5201 12.72 85.0801 11.16 87.3601 11.04C89.5201 11.04 91.0801 12.6 91.0801 15V15.72C91.0801 18.24 89.6401 19.68 87.3601 19.68ZM103.44 13.2L108.6 7.8H114L108 14.4L114.36 23.16H108.96L104.88 17.64L103.44 19.08V23.16H99V0H103.44V13.2ZM123 23.4C125.4 23.4 127.44 22.68 129 21.24C130.68 19.68 131.4 17.76 131.4 15.48C131.4 13.08 130.56 11.16 129 9.72C127.44 8.28 125.4 7.56 123 7.56C120.48 7.56 118.44 8.28 116.88 9.72C115.32 11.16 114.48 13.08 114.48 15.48C114.48 17.88 115.32 19.8 116.88 21.24C118.56 22.68 120.6 23.4 123 23.4ZM120.12 12.36C120.96 11.52 121.8 11.16 123 11.16C124.2 11.16 125.16 11.52 125.88 12.36C126.6 13.08 126.96 14.16 126.96 15.48C126.96 16.8 126.6 17.88 125.88 18.6C125.04 19.32 124.2 19.68 123 19.68C121.8 19.68 120.84 19.32 120.12 18.6C119.4 17.88 119.04 16.8 119.04 15.48C119.04 14.16 119.4 13.08 120.12 12.36Z" fill="#457DF5"/>
</svg>
