<svg width="73" height="14" viewBox="0 0 73 14" fill="none" xmlns="http://www.w3.org/2000/svg">
<path d="M8.38908 12.1411C7.5284 12.9803 6.35214 13.4839 5.06112 13.4839C2.4504 13.4839 0.384766 11.4417 0.384766 8.9239C0.384766 6.37814 2.47909 4.33594 5.06112 4.33594C6.32345 4.33594 7.49971 4.83949 8.36039 5.65078L6.7251 7.24538C6.29476 6.82575 5.69229 6.54599 5.06112 6.54599C3.74142 6.54599 2.67991 7.60906 2.67991 8.89593C2.67991 10.1828 3.74142 11.2179 5.06112 11.2179C5.72098 11.2179 6.32345 10.9381 6.7251 10.5185L8.38908 12.1411Z" fill="#F5F2EB"/>
<path d="M16.7962 11.9739C15.9355 12.7852 14.8453 13.1768 13.4969 13.1768C12.1485 13.1768 11.0583 12.7572 10.1689 11.9739C9.30827 11.1626 8.87793 10.0996 8.87793 8.78471C8.87793 7.46987 9.30827 6.40681 10.1689 5.59552C11.0296 4.78423 12.1485 4.39258 13.4969 4.39258C14.8453 4.39258 15.9355 4.81221 16.7962 5.59552C17.6569 6.40681 18.1159 7.46987 18.1159 8.78471C18.0872 10.0716 17.6569 11.1346 16.7962 11.9739ZM13.4969 6.43478C12.8657 6.43478 12.3493 6.65858 11.9477 7.07822C11.5747 7.49785 11.3739 8.05735 11.3739 8.78471C11.3739 9.51207 11.5747 10.0996 11.9477 10.4912C12.3206 10.9108 12.8657 11.1067 13.4969 11.1067C14.1281 11.1067 14.6445 10.8829 15.0461 10.4912C15.4191 10.0716 15.6199 9.51207 15.6199 8.78471C15.6199 8.05735 15.4191 7.46987 15.0461 7.07822C14.6445 6.63061 14.1281 6.43478 13.4969 6.43478Z" fill="#F5F2EB"/>
<path d="M22.361 1.79005C22.361 2.1817 22.2176 2.51741 21.9307 2.79716C21.3856 3.32869 20.4102 3.32869 19.8651 2.79716C18.9183 1.98588 19.6929 0.279377 20.8979 0.335327C21.7012 0.335327 22.361 0.978761 22.361 1.79005ZM22.1028 12.9802H19.6642V4.55961H22.1028V12.9802Z" fill="#F5F2EB"/>
<path d="M32.2026 7.83355V13.009H29.764V8.28116C29.764 7.21809 29.1902 6.60263 28.2434 6.60263C27.2967 6.60263 26.6368 7.27404 26.6368 8.30913V13.009H24.1982V4.56043H26.5221V5.42767C26.9811 4.72828 27.7557 4.39258 28.8459 4.39258C30.8542 4.39258 32.2026 5.67945 32.2026 7.83355Z" fill="#F5F2EB"/>
<path d="M36.6485 0.307617V5.28724C37.1076 4.69975 37.8535 4.39202 38.8289 4.39202C40.8659 4.39202 42.2143 5.67889 42.2143 7.833V13.0084H39.7757V8.2806C39.7757 7.21754 39.2019 6.60208 38.2551 6.60208C37.3084 6.60208 36.6485 7.27349 36.6485 8.30858V13.0084H34.21V0.307617H36.6485Z" fill="#F5F2EB"/>
<path d="M50.533 5.42635V4.53113H52.8282V12.9797H50.533V12.1125C50.0453 12.7279 49.0985 13.1475 47.951 13.1475C46.7173 13.1475 45.7132 12.7279 44.9386 11.9446C44.164 11.1333 43.791 10.0703 43.791 8.75541C43.791 7.44057 44.164 6.37751 44.9386 5.56622C45.7132 4.75494 46.7173 4.36328 47.951 4.36328C49.1272 4.39126 49.9879 4.72696 50.533 5.42635ZM46.2583 8.78339C46.2583 10.2661 47.0903 11.1053 48.3526 11.1053C49.5863 11.1053 50.3896 10.2941 50.3896 8.95124V8.58756C50.3896 7.27272 49.5576 6.43346 48.3526 6.43346C47.0903 6.43346 46.2583 7.30069 46.2583 8.78339Z" fill="#F5F2EB"/>
<path d="M57.1896 7.55324L60.0011 4.55988H62.9561L59.6855 8.1687L63.1856 13.0084H60.2306L57.9642 9.95913L57.1896 10.7704V13.0084H54.751V0.307617H57.1896V7.55324Z" fill="#F5F2EB"/>
<path d="M71.2191 11.9739C70.3584 12.7852 69.2682 13.1768 67.9198 13.1768C66.5714 13.1768 65.4812 12.7572 64.5918 11.9739C63.7311 11.1626 63.3008 10.0996 63.3008 8.78471C63.3008 7.46987 63.7311 6.40681 64.5918 5.59552C65.4525 4.78423 66.5714 4.39258 67.9198 4.39258C69.2682 4.39258 70.3584 4.81221 71.2191 5.59552C72.0797 6.40681 72.5388 7.46987 72.5388 8.78471C72.5388 10.0716 72.1084 11.1346 71.2191 11.9739ZM67.9198 6.43478C67.2886 6.43478 66.7722 6.65858 66.3705 7.07822C65.9976 7.49785 65.7968 8.05735 65.7968 8.78471C65.7968 9.51207 65.9976 10.0996 66.3705 10.4912C66.7435 10.9108 67.2886 11.1067 67.9198 11.1067C68.5509 11.1067 69.0673 10.8829 69.469 10.4912C69.842 10.0716 70.0428 9.51207 70.0428 8.78471C70.0428 8.05735 69.842 7.46987 69.469 7.07822C69.096 6.63061 68.5796 6.43478 67.9198 6.43478Z" fill="#F5F2EB"/>
</svg>
